<?xml version="1.0" encoding="UTF-8" standalone="no"?>
<svg
   xmlns:dc="http://purl.org/dc/elements/1.1/"
   xmlns:cc="http://creativecommons.org/ns#"
   xmlns:rdf="http://www.w3.org/1999/02/22-rdf-syntax-ns#"
   xmlns:svg="http://www.w3.org/2000/svg"
   xmlns="http://www.w3.org/2000/svg"
   xmlns:sodipodi="http://sodipodi.sourceforge.net/DTD/sodipodi-0.dtd"
   xmlns:inkscape="http://www.inkscape.org/namespaces/inkscape"
   inkscape:export-ydpi="300"
   inkscape:export-xdpi="300"
   inkscape:export-filename="C:\Users\matt.bauer\Pictures\Stickers\ERDS\ERDS.png"
   inkscape:version="1.0 (4035a4f, 2020-05-01)"
   sodipodi:docname="erds_textpath.svg"
   xml:space="preserve"
   style="enable-background:new 0 0 738 852;"
   viewBox="0 0 738 852"
   y="0px"
   x="0px"
   id="Layer_1"
   version="1.1"><metadata
   id="metadata518"><rdf:RDF><cc:Work
       rdf:about=""><dc:format>image/svg+xml</dc:format><dc:type
         rdf:resource="http://purl.org/dc/dcmitype/StillImage" /><dc:title>tidyposterior</dc:title></cc:Work></rdf:RDF></metadata><defs
   id="defs516" /><sodipodi:namedview
   inkscape:document-rotation="0"
   inkscape:current-layer="Layer_1"
   inkscape:window-maximized="1"
   inkscape:window-y="25"
   inkscape:window-x="0"
   inkscape:cy="390.09454"
   inkscape:cx="373.15152"
   inkscape:zoom="0.7054469"
   showgrid="false"
   id="namedview514"
   inkscape:window-height="1328"
   inkscape:window-width="3440"
   inkscape:pageshadow="2"
   inkscape:pageopacity="0"
   guidetolerance="10"
   gridtolerance="10"
   objecttolerance="10"
   borderopacity="1"
   bordercolor="#666666"
   pagecolor="#ffffff" />
<style
   id="style265"
   type="text/css">
	.st0{fill:#141227;}
	.st1{opacity:0.94;}
	.st2{fill:#FFFFFF;}
	.st3{opacity:0.8;fill:#F2F2F2;enable-background:new    ;}
	.st4{fill:#00A5DC;}
	.st5{fill:#FFF34D;}
	.st6{fill:#B57AB4;}
	.st7{fill:#DB1F26;}
	.st8{fill:#F7A238;}
	.st9{fill:#164F86;}
	.st10{fill:#36A85D;}
	.st11{fill:#F26524;}
	.st12{fill:#EF4782;}
	.st13{fill:#0088C5;}
	.st14{fill:#404040;}
</style>
<title
   id="title267">tidyposterior</title>
<polygon
   transform="translate(0,-10.3)"
   style="fill:#21314d;fill-opacity:1"
   id="polygon269"
   points="369,21 369,21 19.6,222.8 19.6,626.3 369,828 718.4,626.3 718.4,222.8 "
   class="st0" />











































































































<path
   style="fill:#92a2bd;fill-opacity:1"
   id="path511"
   d="M736.4,638.4V214.1l-29.3-16.9L429.3,36.8L369,2l-60.3,34.8L30.9,197.2L1.6,214.1v424.3l29.3,16.9l281.3,162.4  l56.9,32.8l56.9-32.8l281.3-162.4L736.4,638.4z M30.9,622.5V232.1L369,36.8l0,0l338.1,195.2v390.4L369,817.7L30.9,622.5z"
   class="st14" />

<g
   transform="translate(0,-30)"
   id="text526"
   style="font-style:normal;font-weight:normal;font-size:13.3333px;line-height:0;font-family:sans-serif;letter-spacing:0px;word-spacing:0px;fill:#d2492a;fill-opacity:1;stroke:none"
   aria-label="ERDS"><path
     inkscape:connector-curvature="0"
     id="path919"
     style="font-style:normal;font-variant:normal;font-weight:bold;font-stretch:normal;font-size:192px;line-height:0;font-family:sans-serif;-inkscape-font-specification:'sans-serif Bold';letter-spacing:-16.08px;word-spacing:0px;fill:#d2492a;fill-opacity:1"
     d="m 125.81946,512.66443 h 97.40625 v 27.28125 h -61.3125 v 26.0625 h 57.65625 v 27.28125 h -57.65625 v 32.0625 h 63.375 v 27.28125 h -99.46875 z" /><path
     inkscape:connector-curvature="0"
     id="path921"
     style="font-style:normal;font-variant:normal;font-weight:bold;font-stretch:normal;font-size:192px;line-height:0;font-family:sans-serif;-inkscape-font-specification:'sans-serif Bold';letter-spacing:-16.08px;word-spacing:0px;fill:#d2492a;fill-opacity:1"
     d="m 292.27071,574.72693 q 11.34375,0 16.21875,-4.21875 4.96875,-4.21875 4.96875,-13.875 0,-9.5625 -4.96875,-13.6875 -4.875,-4.125 -16.21875,-4.125 h -15.1875 v 35.90625 z m -15.1875,24.9375 v 52.96875 H 240.98946 V 512.66443 h 55.125 q 27.65625,0 40.5,9.28125 12.9375,9.28125 12.9375,29.34375 0,13.875 -6.75,22.78125 -6.65625,8.90625 -20.15625,13.125 7.40625,1.6875 13.21875,7.6875 5.90625,5.90625 11.90625,18 l 19.59375,39.75 h -38.4375 l -17.0625,-34.78125 q -5.15625,-10.5 -10.5,-14.34375 -5.25,-3.84375 -14.0625,-3.84375 z" /><path
     inkscape:connector-curvature="0"
     id="path923"
     style="font-style:normal;font-variant:normal;font-weight:bold;font-stretch:normal;font-size:192px;line-height:0;font-family:sans-serif;-inkscape-font-specification:'sans-serif Bold';letter-spacing:-16.08px;word-spacing:0px;fill:#d2492a;fill-opacity:1"
     d="m 408.7532,539.94568 v 85.40625 h 12.9375 q 22.125,0 33.75,-10.96875 11.71875,-10.96875 11.71875,-31.875 0,-20.8125 -11.625,-31.6875 -11.625,-10.875 -33.84375,-10.875 z m -36.09375,-27.28125 h 38.0625 q 31.875,0 47.4375,4.59375 15.65625,4.5 26.8125,15.375 9.84375,9.46875 14.625,21.84375 4.78125,12.375 4.78125,28.03125 0,15.84375 -4.78125,28.3125 -4.78125,12.375 -14.625,21.84375 -11.25,10.875 -27,15.46875 -15.75,4.5 -47.25,4.5 h -38.0625 z" /><path
     inkscape:connector-curvature="0"
     id="path925"
     style="font-style:normal;font-variant:normal;font-weight:bold;font-stretch:normal;font-size:192px;line-height:0;font-family:sans-serif;-inkscape-font-specification:'sans-serif Bold';letter-spacing:-16.08px;word-spacing:0px;fill:#d2492a;fill-opacity:1"
     d="m 613.36072,517.07068 v 29.625 q -11.53125,-5.15625 -22.5,-7.78125 -10.96875,-2.625 -20.71875,-2.625 -12.9375,0 -19.125,3.5625 -6.1875,3.5625 -6.1875,11.0625 0,5.625 4.125,8.8125 4.21875,3.09375 15.1875,5.34375 l 15.375,3.09375 q 23.34375,4.6875 33.1875,14.25 9.84375,9.5625 9.84375,27.1875 0,23.15625 -13.78125,34.5 -13.6875,11.25 -41.90625,11.25 -13.3125,0 -26.71875,-2.53125 -13.40625,-2.53125 -26.8125,-7.5 v -30.46875 q 13.40625,7.125 25.875,10.78125 12.5625,3.5625 24.1875,3.5625 11.8125,0 18.09375,-3.9375 6.28125,-3.9375 6.28125,-11.25 0,-6.5625 -4.3125,-10.125 -4.21875,-3.5625 -16.96875,-6.375 l -13.96875,-3.09375 q -21,-4.5 -30.75,-14.34375 -9.65625,-9.84375 -9.65625,-26.53125 0,-20.90625 13.5,-32.15625 13.5,-11.25 38.8125,-11.25 11.53125,0 23.71875,1.78125 12.1875,1.6875 25.21875,5.15625 z" /></g>

<g
   transform="translate(0,-30)"
   id="text5038"
   style="font-style:normal;font-variant:normal;font-weight:bold;font-stretch:normal;font-size:13.3333px;line-height:1.25;font-family:sans-serif;-inkscape-font-specification:'sans-serif Bold';letter-spacing:0px;word-spacing:0px;fill:#d2492a;fill-opacity:1;stroke:none"
   aria-label="EARTH RESOURCE DATA SCIENCE"><path
     inkscape:connector-curvature="0"
     id="path870"
     style="font-style:normal;font-variant:normal;font-weight:bold;font-stretch:normal;font-size:21.3333px;font-family:sans-serif;-inkscape-font-specification:'sans-serif Bold';letter-spacing:1.72px;word-spacing:16.22px;fill:#d2492a;fill-opacity:1"
     d="m 127.39631,658.16679 h 10.82292 v 3.03125 h -6.8125 v 2.89583 h 6.40625 v 3.03125 h -6.40625 v 3.5625 h 7.04167 v 3.03125 h -11.05209 z" /><path
     inkscape:connector-curvature="0"
     id="path872"
     style="font-style:normal;font-variant:normal;font-weight:bold;font-stretch:normal;font-size:21.3333px;font-family:sans-serif;-inkscape-font-specification:'sans-serif Bold';letter-spacing:1.72px;word-spacing:16.22px;fill:#d2492a;fill-opacity:1"
     d="m 153.13715,670.88554 h -6.27084 l -0.98958,2.83333 h -4.03125 l 5.76042,-15.55208 h 4.78125 l 5.76041,15.55208 h -4.03125 z m -5.27084,-2.88542 h 4.26042 l -2.125,-6.1875 z" /><path
     inkscape:connector-curvature="0"
     id="path874"
     style="font-style:normal;font-variant:normal;font-weight:bold;font-stretch:normal;font-size:21.3333px;font-family:sans-serif;-inkscape-font-specification:'sans-serif Bold';letter-spacing:1.72px;word-spacing:16.22px;fill:#d2492a;fill-opacity:1"
     d="m 167.61757,665.06262 q 1.26041,0 1.80208,-0.46875 0.55208,-0.46875 0.55208,-1.54166 0,-1.0625 -0.55208,-1.52084 -0.54167,-0.45833 -1.80208,-0.45833 h -1.6875 v 3.98958 z m -1.6875,2.77084 v 5.88541 h -4.01042 v -15.55208 h 6.125 q 3.07292,0 4.5,1.03125 1.4375,1.03125 1.4375,3.26042 0,1.54166 -0.75,2.53125 -0.73958,0.98958 -2.23958,1.45833 0.82291,0.1875 1.46875,0.85417 0.65625,0.65625 1.32291,2 l 2.17709,4.41666 h -4.27084 l -1.89583,-3.86458 q -0.57292,-1.16667 -1.16667,-1.59375 -0.58333,-0.42708 -1.5625,-0.42708 z" /><path
     inkscape:connector-curvature="0"
     id="path876"
     style="font-style:normal;font-variant:normal;font-weight:bold;font-stretch:normal;font-size:21.3333px;font-family:sans-serif;-inkscape-font-specification:'sans-serif Bold';letter-spacing:1.72px;word-spacing:16.22px;fill:#d2492a;fill-opacity:1"
     d="m 177.24382,658.16679 h 14.33333 v 3.03125 h -5.15625 v 12.52083 h -4.01042 v -12.52083 h -5.16666 z" /><path
     inkscape:connector-curvature="0"
     id="path878"
     style="font-style:normal;font-variant:normal;font-weight:bold;font-stretch:normal;font-size:21.3333px;font-family:sans-serif;-inkscape-font-specification:'sans-serif Bold';letter-spacing:1.72px;word-spacing:16.22px;fill:#d2492a;fill-opacity:1"
     d="m 195.35965,658.16679 h 4.01041 v 5.92708 h 5.91667 v -5.92708 h 4.01042 v 15.55208 h -4.01042 v -6.59375 h -5.91667 v 6.59375 h -4.01041 z" /><path
     inkscape:connector-curvature="0"
     id="path880"
     style="font-style:normal;font-variant:normal;font-weight:bold;font-stretch:normal;font-size:21.3333px;font-family:sans-serif;-inkscape-font-specification:'sans-serif Bold';letter-spacing:1.72px;word-spacing:16.22px;fill:#d2492a;fill-opacity:1"
     d="m 246.00923,665.06262 q 1.26042,0 1.80209,-0.46875 0.55208,-0.46875 0.55208,-1.54166 0,-1.0625 -0.55208,-1.52084 -0.54167,-0.45833 -1.80209,-0.45833 h -1.6875 v 3.98958 z m -1.6875,2.77084 v 5.88541 h -4.01042 v -15.55208 h 6.12501 q 3.07291,0 4.5,1.03125 1.4375,1.03125 1.4375,3.26042 0,1.54166 -0.75,2.53125 -0.73959,0.98958 -2.23959,1.45833 0.82292,0.1875 1.46875,0.85417 0.65625,0.65625 1.32292,2 l 2.17708,4.41666 h -4.27083 l -1.89583,-3.86458 q -0.57292,-1.16667 -1.16667,-1.59375 -0.58333,-0.42708 -1.5625,-0.42708 z" /><path
     inkscape:connector-curvature="0"
     id="path882"
     style="font-style:normal;font-variant:normal;font-weight:bold;font-stretch:normal;font-size:21.3333px;font-family:sans-serif;-inkscape-font-specification:'sans-serif Bold';letter-spacing:1.72px;word-spacing:16.22px;fill:#d2492a;fill-opacity:1"
     d="m 258.44798,658.16679 h 10.82292 v 3.03125 h -6.8125 v 2.89583 h 6.40625 v 3.03125 h -6.40625 v 3.5625 h 7.04166 v 3.03125 h -11.05208 z" /><path
     inkscape:connector-curvature="0"
     id="path884"
     style="font-style:normal;font-variant:normal;font-weight:bold;font-stretch:normal;font-size:21.3333px;font-family:sans-serif;-inkscape-font-specification:'sans-serif Bold';letter-spacing:1.72px;word-spacing:16.22px;fill:#d2492a;fill-opacity:1"
     d="m 285.57424,658.65637 v 3.29167 q -1.28125,-0.57292 -2.5,-0.86458 -1.21875,-0.29167 -2.30208,-0.29167 -1.4375,0 -2.125,0.39583 -0.6875,0.39584 -0.6875,1.22917 0,0.625 0.45833,0.97917 0.46875,0.34375 1.6875,0.59375 l 1.70834,0.34375 q 2.59375,0.52083 3.6875,1.58333 1.09375,1.0625 1.09375,3.02083 0,2.57292 -1.53125,3.83334 -1.52084,1.25 -4.65625,1.25 -1.47917,0 -2.96875,-0.28125 -1.48959,-0.28125 -2.97917,-0.83334 v -3.38541 q 1.48958,0.79166 2.875,1.19791 1.39583,0.39584 2.6875,0.39584 1.3125,0 2.01042,-0.4375 0.69791,-0.4375 0.69791,-1.25 0,-0.72917 -0.47916,-1.125 -0.46875,-0.39584 -1.88542,-0.70834 l -1.55208,-0.34375 q -2.33334,-0.5 -3.41667,-1.59375 -1.07292,-1.09375 -1.07292,-2.94791 0,-2.32292 1.5,-3.57292 1.5,-1.25 4.3125,-1.25 1.28125,0 2.63542,0.19791 1.35417,0.1875 2.80208,0.57292 z" /><path
     inkscape:connector-curvature="0"
     id="path886"
     style="font-style:normal;font-variant:normal;font-weight:bold;font-stretch:normal;font-size:21.3333px;font-family:sans-serif;-inkscape-font-specification:'sans-serif Bold';letter-spacing:1.72px;word-spacing:16.22px;fill:#d2492a;fill-opacity:1"
     d="m 298.95049,660.79179 q -1.83333,0 -2.84375,1.35417 -1.01041,1.35416 -1.01041,3.8125 0,2.44791 1.01041,3.80208 1.01042,1.35417 2.84375,1.35417 1.84375,0 2.85417,-1.35417 1.01042,-1.35417 1.01042,-3.80208 0,-2.45834 -1.01042,-3.8125 -1.01042,-1.35417 -2.85417,-1.35417 z m 0,-2.90625 q 3.75,0 5.875,2.14583 2.125,2.14584 2.125,5.92709 0,3.77083 -2.125,5.91666 -2.125,2.14584 -5.875,2.14584 -3.73958,0 -5.875,-2.14584 -2.125,-2.14583 -2.125,-5.91666 0,-3.78125 2.125,-5.92709 2.13542,-2.14583 5.875,-2.14583 z" /><path
     inkscape:connector-curvature="0"
     id="path888"
     style="font-style:normal;font-variant:normal;font-weight:bold;font-stretch:normal;font-size:21.3333px;font-family:sans-serif;-inkscape-font-specification:'sans-serif Bold';letter-spacing:1.72px;word-spacing:16.22px;fill:#d2492a;fill-opacity:1"
     d="m 311.69131,658.16679 h 4.01042 v 9.32292 q 0,1.92708 0.625,2.76041 0.63542,0.82292 2.0625,0.82292 1.4375,0 2.0625,-0.82292 0.63542,-0.83333 0.63542,-2.76041 v -9.32292 h 4.01041 v 9.32292 q 0,3.30208 -1.65625,4.91666 -1.65625,1.61459 -5.05208,1.61459 -3.38542,0 -5.04167,-1.61459 -1.65625,-1.61458 -1.65625,-4.91666 z" /><path
     inkscape:connector-curvature="0"
     id="path890"
     style="font-style:normal;font-variant:normal;font-weight:bold;font-stretch:normal;font-size:21.3333px;font-family:sans-serif;-inkscape-font-specification:'sans-serif Bold';letter-spacing:1.72px;word-spacing:16.22px;fill:#d2492a;fill-opacity:1"
     d="m 336.44257,665.06262 q 1.26042,0 1.80209,-0.46875 0.55208,-0.46875 0.55208,-1.54166 0,-1.0625 -0.55208,-1.52084 -0.54167,-0.45833 -1.80209,-0.45833 h -1.6875 v 3.98958 z m -1.6875,2.77084 v 5.88541 h -4.01041 v -15.55208 h 6.125 q 3.07291,0 4.5,1.03125 1.4375,1.03125 1.4375,3.26042 0,1.54166 -0.75,2.53125 -0.73959,0.98958 -2.23959,1.45833 0.82292,0.1875 1.46875,0.85417 0.65625,0.65625 1.32292,2 l 2.17708,4.41666 h -4.27083 l -1.89583,-3.86458 q -0.57292,-1.16667 -1.16667,-1.59375 -0.58333,-0.42708 -1.5625,-0.42708 z" /><path
     inkscape:connector-curvature="0"
     id="path892"
     style="font-style:normal;font-variant:normal;font-weight:bold;font-stretch:normal;font-size:21.3333px;font-family:sans-serif;-inkscape-font-specification:'sans-serif Bold';letter-spacing:1.72px;word-spacing:16.22px;fill:#d2492a;fill-opacity:1"
     d="m 361.21465,672.86471 q -1.10417,0.57291 -2.30209,0.86458 -1.19791,0.29167 -2.5,0.29167 -3.88541,0 -6.15625,-2.16667 -2.27083,-2.17708 -2.27083,-5.89583 0,-3.72917 2.27083,-5.89584 2.27084,-2.17708 6.15625,-2.17708 1.30209,0 2.5,0.29166 1.19792,0.29167 2.30209,0.86459 v 3.21875 q -1.11459,-0.76042 -2.19792,-1.11458 -1.08333,-0.35417 -2.28125,-0.35417 -2.14583,0 -3.375,1.375 -1.22917,1.375 -1.22917,3.79167 0,2.40625 1.22917,3.78125 1.22917,1.375 3.375,1.375 1.19792,0 2.28125,-0.35417 1.08333,-0.35417 2.19792,-1.11458 z" /><path
     inkscape:connector-curvature="0"
     id="path894"
     style="font-style:normal;font-variant:normal;font-weight:bold;font-stretch:normal;font-size:21.3333px;font-family:sans-serif;-inkscape-font-specification:'sans-serif Bold';letter-spacing:1.72px;word-spacing:16.22px;fill:#d2492a;fill-opacity:1"
     d="m 366.26799,658.16679 h 10.82291 v 3.03125 h -6.8125 v 2.89583 h 6.40625 v 3.03125 h -6.40625 v 3.5625 h 7.04167 v 3.03125 h -11.05208 z" /><path
     inkscape:connector-curvature="0"
     id="path896"
     style="font-style:normal;font-variant:normal;font-weight:bold;font-stretch:normal;font-size:21.3333px;font-family:sans-serif;-inkscape-font-specification:'sans-serif Bold';letter-spacing:1.72px;word-spacing:16.22px;fill:#d2492a;fill-opacity:1"
     d="m 411.93841,661.19804 v 9.48958 h 1.4375 q 2.45833,0 3.75,-1.21875 1.30208,-1.21875 1.30208,-3.54166 0,-2.3125 -1.29167,-3.52084 -1.29166,-1.20833 -3.76041,-1.20833 z m -4.01042,-3.03125 h 4.22917 q 3.54166,0 5.27083,0.51041 1.73958,0.5 2.97917,1.70834 1.09375,1.05208 1.625,2.42708 0.53125,1.375 0.53125,3.11459 0,1.76041 -0.53125,3.14583 -0.53125,1.375 -1.625,2.42708 -1.25,1.20834 -3,1.71875 -1.75,0.5 -5.25,0.5 h -4.22917 z" /><path
     inkscape:connector-curvature="0"
     id="path898"
     style="font-style:normal;font-variant:normal;font-weight:bold;font-stretch:normal;font-size:21.3333px;font-family:sans-serif;-inkscape-font-specification:'sans-serif Bold';letter-spacing:1.72px;word-spacing:16.22px;fill:#d2492a;fill-opacity:1"
     d="M 436.79384,670.88554 H 430.523 l -0.98958,2.83333 h -4.03125 l 5.76042,-15.55208 h 4.78125 l 5.76041,15.55208 H 437.773 Z m -5.27084,-2.88542 h 4.26042 l -2.125,-6.1875 z" /><path
     inkscape:connector-curvature="0"
     id="path900"
     style="font-style:normal;font-variant:normal;font-weight:bold;font-stretch:normal;font-size:21.3333px;font-family:sans-serif;-inkscape-font-specification:'sans-serif Bold';letter-spacing:1.72px;word-spacing:16.22px;fill:#d2492a;fill-opacity:1"
     d="m 442.05548,658.16679 h 14.33334 v 3.03125 h -5.15625 v 12.52083 h -4.01042 v -12.52083 h -5.16667 z" /><path
     inkscape:connector-curvature="0"
     id="path902"
     style="font-style:normal;font-variant:normal;font-weight:bold;font-stretch:normal;font-size:21.3333px;font-family:sans-serif;-inkscape-font-specification:'sans-serif Bold';letter-spacing:1.72px;word-spacing:16.22px;fill:#d2492a;fill-opacity:1"
     d="m 467.94215,670.88554 h -6.27083 l -0.98959,2.83333 h -4.03125 l 5.76042,-15.55208 h 4.78125 l 5.76042,15.55208 h -4.03125 z m -5.27083,-2.88542 h 4.26042 l -2.12501,-6.1875 z" /><path
     inkscape:connector-curvature="0"
     id="path904"
     style="font-style:normal;font-variant:normal;font-weight:bold;font-stretch:normal;font-size:21.3333px;font-family:sans-serif;-inkscape-font-specification:'sans-serif Bold';letter-spacing:1.72px;word-spacing:16.22px;fill:#d2492a;fill-opacity:1"
     d="m 512.90423,658.65637 v 3.29167 q -1.28125,-0.57292 -2.5,-0.86458 -1.21875,-0.29167 -2.30208,-0.29167 -1.4375,0 -2.125,0.39583 -0.6875,0.39584 -0.6875,1.22917 0,0.625 0.45833,0.97917 0.46875,0.34375 1.6875,0.59375 l 1.70833,0.34375 q 2.59375,0.52083 3.6875,1.58333 1.09375,1.0625 1.09375,3.02083 0,2.57292 -1.53125,3.83334 -1.52083,1.25 -4.65625,1.25 -1.47916,0 -2.96875,-0.28125 -1.48958,-0.28125 -2.97917,-0.83334 v -3.38541 q 1.48959,0.79166 2.87501,1.19791 1.39583,0.39584 2.6875,0.39584 1.3125,0 2.01041,-0.4375 0.69792,-0.4375 0.69792,-1.25 0,-0.72917 -0.47917,-1.125 -0.46875,-0.39584 -1.88541,-0.70834 l -1.55209,-0.34375 q -2.33333,-0.5 -3.41667,-1.59375 -1.07291,-1.09375 -1.07291,-2.94791 0,-2.32292 1.5,-3.57292 1.5,-1.25 4.3125,-1.25 1.28125,0 2.63542,0.19791 1.35416,0.1875 2.80208,0.57292 z" /><path
     inkscape:connector-curvature="0"
     id="path906"
     style="font-style:normal;font-variant:normal;font-weight:bold;font-stretch:normal;font-size:21.3333px;font-family:sans-serif;-inkscape-font-specification:'sans-serif Bold';letter-spacing:1.72px;word-spacing:16.22px;fill:#d2492a;fill-opacity:1"
     d="m 531.50965,672.86471 q -1.10417,0.57291 -2.30209,0.86458 -1.19791,0.29167 -2.5,0.29167 -3.88541,0 -6.15625,-2.16667 -2.27083,-2.17708 -2.27083,-5.89583 0,-3.72917 2.27083,-5.89584 2.27084,-2.17708 6.15625,-2.17708 1.30209,0 2.5,0.29166 1.19792,0.29167 2.30209,0.86459 v 3.21875 q -1.11459,-0.76042 -2.19792,-1.11458 -1.08333,-0.35417 -2.28125,-0.35417 -2.14583,0 -3.375,1.375 -1.22917,1.375 -1.22917,3.79167 0,2.40625 1.22917,3.78125 1.22917,1.375 3.375,1.375 1.19792,0 2.28125,-0.35417 1.08333,-0.35417 2.19792,-1.11458 z" /><path
     inkscape:connector-curvature="0"
     id="path908"
     style="font-style:normal;font-variant:normal;font-weight:bold;font-stretch:normal;font-size:21.3333px;font-family:sans-serif;-inkscape-font-specification:'sans-serif Bold';letter-spacing:1.72px;word-spacing:16.22px;fill:#d2492a;fill-opacity:1"
     d="m 536.563,658.16679 h 4.01042 v 15.55208 H 536.563 Z" /><path
     inkscape:connector-curvature="0"
     id="path910"
     style="font-style:normal;font-variant:normal;font-weight:bold;font-stretch:normal;font-size:21.3333px;font-family:sans-serif;-inkscape-font-specification:'sans-serif Bold';letter-spacing:1.72px;word-spacing:16.22px;fill:#d2492a;fill-opacity:1"
     d="m 546.24132,658.16679 h 10.82291 v 3.03125 h -6.8125 v 2.89583 h 6.40625 v 3.03125 h -6.40625 v 3.5625 h 7.04167 v 3.03125 h -11.05208 z" /><path
     inkscape:connector-curvature="0"
     id="path912"
     style="font-style:normal;font-variant:normal;font-weight:bold;font-stretch:normal;font-size:21.3333px;font-family:sans-serif;-inkscape-font-specification:'sans-serif Bold';letter-spacing:1.72px;word-spacing:16.22px;fill:#d2492a;fill-opacity:1"
     d="m 562.54466,658.16679 h 4.47917 l 5.65625,10.66667 v -10.66667 h 3.80208 v 15.55208 h -4.47917 l -5.65625,-10.66666 v 10.66666 h -3.80208 z" /><path
     inkscape:connector-curvature="0"
     id="path914"
     style="font-style:normal;font-variant:normal;font-weight:bold;font-stretch:normal;font-size:21.3333px;font-family:sans-serif;-inkscape-font-specification:'sans-serif Bold';letter-spacing:1.72px;word-spacing:16.22px;fill:#d2492a;fill-opacity:1"
     d="m 594.47299,672.86471 q -1.10416,0.57291 -2.30208,0.86458 -1.19792,0.29167 -2.5,0.29167 -3.88542,0 -6.15625,-2.16667 -2.27083,-2.17708 -2.27083,-5.89583 0,-3.72917 2.27083,-5.89584 2.27083,-2.17708 6.15625,-2.17708 1.30208,0 2.5,0.29166 1.19792,0.29167 2.30208,0.86459 v 3.21875 q -1.11458,-0.76042 -2.19791,-1.11458 -1.08334,-0.35417 -2.28125,-0.35417 -2.14584,0 -3.375,1.375 -1.22917,1.375 -1.22917,3.79167 0,2.40625 1.22917,3.78125 1.22916,1.375 3.375,1.375 1.19791,0 2.28125,-0.35417 1.08333,-0.35417 2.19791,-1.11458 z" /><path
     inkscape:connector-curvature="0"
     id="path916"
     style="font-style:normal;font-variant:normal;font-weight:bold;font-stretch:normal;font-size:21.3333px;font-family:sans-serif;-inkscape-font-specification:'sans-serif Bold';letter-spacing:1.72px;word-spacing:16.22px;fill:#d2492a;fill-opacity:1"
     d="m 599.52632,658.16679 h 10.82292 v 3.03125 h -6.8125 v 2.89583 h 6.40625 v 3.03125 h -6.40625 v 3.5625 h 7.04166 v 3.03125 h -11.05208 z" /></g>

<g
   id="text5042"
   style="font-style:normal;font-variant:normal;font-weight:bold;font-stretch:normal;font-size:18.66666603px;line-height:1.25;font-family:sans-serif;-inkscape-font-specification:'sans-serif Bold';letter-spacing:0px;word-spacing:0px;fill:#d2492a;fill-opacity:1;stroke:none"
   transform="rotate(-29.755514)"
   aria-label="• ENERGY  • ENVIROMENTAL • WATER  •"><path
     inkscape:connector-curvature="0"
     id="path979"
     style="font-size:17.33333397px"
     d="m -86.398092,226.82106 q 0,-0.6263 0.220053,-1.17643 0.228515,-0.55013 0.660156,-0.97331 0.448568,-0.43164 0.998698,-0.65169 0.55013,-0.22852 1.167969,-0.22852 0.617838,0 1.167968,0.22852 0.558594,0.22851 0.981771,0.65169 0.440104,0.4401 0.660157,0.99023 0.228515,0.54167 0.228515,1.15951 0,0.6263 -0.228515,1.1849 -0.228516,0.55013 -0.660157,0.98177 -0.43164,0.43164 -0.990234,0.66015 -0.55013,0.22852 -1.176433,0.22852 -0.617838,0 -1.167968,-0.22852 -0.550131,-0.22851 -0.981771,-0.66015 -0.423177,-0.43164 -0.651693,-0.98177 -0.228516,-0.5586 -0.228516,-1.1849 z" /><path
     inkscape:connector-curvature="0"
     id="path981"
     style="font-size:17.33333397px"
     d="m -70.207335,220.63421 h 8.79362 v 2.46289 h -5.535156 v 2.35287 h 5.205078 v 2.46289 h -5.205078 v 2.89453 h 5.721354 v 2.46289 h -8.979818 z" /><path
     inkscape:connector-curvature="0"
     id="path983"
     style="font-size:17.33333397px"
     d="m -58.358378,220.63421 h 3.639323 l 4.595703,8.66667 v -8.66667 h 3.089193 v 12.63607 h -3.639323 l -4.595703,-8.66667 v 8.66667 h -3.089193 z" /><path
     inkscape:connector-curvature="0"
     id="path985"
     style="font-size:17.33333397px"
     d="m -43.834941,220.63421 h 8.793621 v 2.46289 h -5.535157 v 2.35287 h 5.205078 v 2.46289 h -5.205078 v 2.89453 h 5.721355 v 2.46289 h -8.979819 z" /><path
     inkscape:connector-curvature="0"
     id="path987"
     style="font-size:17.33333397px"
     d="m -27.356422,226.23708 q 1.024088,0 1.464193,-0.38086 0.448567,-0.38086 0.448567,-1.25261 0,-0.86328 -0.448567,-1.23568 -0.440105,-0.37239 -1.464193,-0.37239 h -1.371094 v 3.24154 z m -1.371094,2.2513 v 4.7819 h -3.258464 v -12.63607 h 4.976563 q 2.496745,0 3.65625,0.83789 1.167969,0.83789 1.167969,2.64909 0,1.2526 -0.609375,2.05664 -0.600912,0.80404 -1.819662,1.1849 0.66862,0.15234 1.19336,0.69401 0.533203,0.5332 1.07487,1.625 l 1.76888,3.58854 h -3.470052 l -1.540365,-3.13998 q -0.465495,-0.94791 -0.947917,-1.29492 -0.473958,-0.347 -1.269531,-0.347 z" /><path
     inkscape:connector-curvature="0"
     id="path989"
     style="font-size:17.33333397px"
     d="m -7.2893672,232.33083 q -1.21875,0.59244 -2.5305991,0.88867 -1.3118487,0.29622 -2.7083337,0.29622 -3.156901,0 -5.001953,-1.76042 -1.845052,-1.76888 -1.845052,-4.79036 0,-3.05534 1.878906,-4.80729 1.878906,-1.75195 5.145834,-1.75195 1.261067,0 2.4121092,0.23697 1.1595052,0.23698 2.1835938,0.70248 v 2.61523 q -1.0579428,-0.60091 -2.107422,-0.89713 -1.041016,-0.29623 -2.090495,-0.29623 -1.946614,0 -3.004557,1.0918 -1.049479,1.08333 -1.049479,3.10612 0,2.00586 1.015625,3.09766 1.015625,1.09179 2.886067,1.09179 0.507813,0 0.939454,-0.0592 0.440104,-0.0677 0.787109,-0.20313 v -2.45442 h -1.988932 v -2.1836 h 5.0781248 z" /><path
     inkscape:connector-curvature="0"
     id="path991"
     style="font-size:17.33333397px"
     d="m -6.561498,220.63421 h 3.5631512 l 2.87760423,4.50261 2.87760427,-4.50261 h 3.5716147 l -4.8157554,7.3125 v 5.32357 h -3.2584636 v -5.32357 z" /><path
     inkscape:connector-curvature="0"
     id="path993"
     style="font-size:17.33333397px"
     d="m 20.716494,226.82106 q 0,-0.6263 0.220052,-1.17643 0.228516,-0.55013 0.660157,-0.97331 0.448567,-0.43164 0.998698,-0.65169 0.55013,-0.22852 1.167968,-0.22852 0.617839,0 1.167969,0.22852 0.558594,0.22851 0.981771,0.65169 0.440104,0.4401 0.660156,0.99023 0.228516,0.54167 0.228516,1.15951 0,0.6263 -0.228516,1.1849 -0.228515,0.55013 -0.660156,0.98177 -0.431641,0.43164 -0.990234,0.66015 -0.550131,0.22852 -1.176433,0.22852 -0.617838,0 -1.167968,-0.22852 -0.550131,-0.22851 -0.981771,-0.66015 -0.423177,-0.43164 -0.651693,-0.98177 -0.228516,-0.5586 -0.228516,-1.1849 z" /><path
     inkscape:connector-curvature="0"
     id="path995"
     style="font-size:17.33333397px"
     d="m 36.907255,220.63421 h 8.79362 v 2.46289 h -5.535157 v 2.35287 h 5.205079 v 2.46289 h -5.205079 v 2.89453 h 5.721355 v 2.46289 h -8.979818 z" /><path
     inkscape:connector-curvature="0"
     id="path997"
     style="font-size:17.33333397px"
     d="m 48.756215,220.63421 h 3.639324 l 4.595703,8.66667 v -8.66667 h 3.089193 v 12.63607 h -3.639323 l -4.595704,-8.66667 v 8.66667 h -3.089193 z" /><path
     inkscape:connector-curvature="0"
     id="path999"
     style="font-size:17.33333397px"
     d="m 61.773142,220.63421 h 3.275391 l 3.351563,9.32682 3.343099,-9.32682 h 3.275391 l -4.680339,12.63607 h -3.884766 z" /><path
     inkscape:connector-curvature="0"
     id="path1001"
     style="font-size:17.33333397px"
     d="m 76.685903,220.63421 h 3.258464 v 12.63607 h -3.258464 z" /><path
     inkscape:connector-curvature="0"
     id="path1003"
     style="font-size:17.33333397px"
     d="m 87.781601,226.23708 q 1.024089,0 1.464193,-0.38086 0.448568,-0.38086 0.448568,-1.25261 0,-0.86328 -0.448568,-1.23568 -0.440104,-0.37239 -1.464193,-0.37239 h -1.371094 v 3.24154 z m -1.371094,2.2513 v 4.7819 h -3.258463 v -12.63607 h 4.976562 q 2.496745,0 3.656251,0.83789 1.167968,0.83789 1.167968,2.64909 0,1.2526 -0.609375,2.05664 -0.600911,0.80404 -1.819661,1.1849 0.66862,0.15234 1.193359,0.69401 0.533203,0.5332 1.07487,1.625 l 1.76888,3.58854 h -3.470052 l -1.540365,-3.13998 q -0.465494,-0.94791 -0.947916,-1.29492 -0.473959,-0.347 -1.269532,-0.347 z" /><path
     inkscape:connector-curvature="0"
     id="path1005"
     style="font-size:17.33333397px"
     d="m 102.26273,222.76702 q -1.48959,0 -2.310551,1.10026 -0.820963,1.10026 -0.820963,3.09766 0,1.98893 0.820963,3.08919 0.820961,1.10026 2.310551,1.10026 1.49804,0 2.31901,-1.10026 0.82096,-1.10026 0.82096,-3.08919 0,-1.9974 -0.82096,-3.09766 -0.82097,-1.10026 -2.31901,-1.10026 z m 0,-2.36132 q 3.04687,0 4.77343,1.74348 1.72657,1.74349 1.72657,4.81576 0,3.0638 -1.72657,4.80729 -1.72656,1.74349 -4.77343,1.74349 -3.038415,0 -4.773442,-1.74349 -1.726562,-1.74349 -1.726562,-4.80729 0,-3.07227 1.726562,-4.81576 1.735027,-1.74348 4.773442,-1.74348 z" /><path
     inkscape:connector-curvature="0"
     id="path1007"
     style="font-size:17.33333397px"
     d="m 111.21715,220.63421 h 4.14714 l 2.8776,6.76237 2.89453,-6.76237 h 4.13868 v 12.63607 h -3.08073 v -9.24219 l -2.91146,6.81315 h -2.06511 l -2.91145,-6.81315 v 9.24219 h -3.0892 z" /><path
     inkscape:connector-curvature="0"
     id="path1009"
     style="font-size:17.33333397px"
     d="m 128.48278,220.63421 h 8.79362 v 2.46289 h -5.53516 v 2.35287 h 5.20508 v 2.46289 h -5.20508 v 2.89453 h 5.72136 v 2.46289 h -8.97982 z" /><path
     inkscape:connector-curvature="0"
     id="path1011"
     style="font-size:17.33333397px"
     d="m 140.33173,220.63421 h 3.63932 l 4.59571,8.66667 v -8.66667 h 3.08919 v 12.63607 h -3.63932 l -4.59571,-8.66667 v 8.66667 h -3.08919 z" /><path
     inkscape:connector-curvature="0"
     id="path1013"
     style="font-size:17.33333397px"
     d="m 153.34866,220.63421 h 11.64583 v 2.46289 h -4.18945 v 10.17318 h -3.25846 V 223.0971 h -4.19792 z" /><path
     inkscape:connector-curvature="0"
     id="path1015"
     style="font-size:17.33333397px"
     d="m 172.98408,230.9682 h -5.09506 l -0.80403,2.30208 h -3.27539 l 4.68033,-12.63607 h 3.88477 l 4.68034,12.63607 h -3.27539 z m -4.28256,-2.34441 h 3.46159 l -1.72656,-5.02734 z" /><path
     inkscape:connector-curvature="0"
     id="path1017"
     style="font-size:17.33333397px"
     d="m 178.72237,220.63421 h 3.25847 v 10.17318 h 5.72135 v 2.46289 h -8.97982 z" /><path
     inkscape:connector-curvature="0"
     id="path1019"
     style="font-size:17.33333397px"
     d="m 196.69047,226.82106 q 0,-0.6263 0.22005,-1.17643 0.22852,-0.55013 0.66016,-0.97331 0.44857,-0.43164 0.9987,-0.65169 0.55013,-0.22852 1.16797,-0.22852 0.61783,0 1.16796,0.22852 0.5586,0.22851 0.98178,0.65169 0.4401,0.4401 0.66015,0.99023 0.22852,0.54167 0.22852,1.15951 0,0.6263 -0.22852,1.1849 -0.22851,0.55013 -0.66015,0.98177 -0.43165,0.43164 -0.99024,0.66015 -0.55013,0.22852 -1.17643,0.22852 -0.61784,0 -1.16797,-0.22852 -0.55013,-0.22851 -0.98177,-0.66015 -0.42318,-0.43164 -0.65169,-0.98177 -0.22852,-0.5586 -0.22852,-1.1849 z" /><path
     inkscape:connector-curvature="0"
     id="path1021"
     style="font-size:17.33333397px"
     d="m 211.80635,220.63421 h 3.12304 l 2.1836,9.18294 2.16666,-9.18294 h 3.13998 l 2.16666,9.18294 2.1836,-9.18294 h 3.09765 l -2.97916,12.63607 h -3.75782 l -2.29362,-9.60612 -2.26822,9.60612 h -3.75782 z" /><path
     inkscape:connector-curvature="0"
     id="path1023"
     style="font-size:17.33333397px"
     d="m 238.89815,230.9682 h -5.09505 l -0.80404,2.30208 h -3.27539 l 4.68034,-12.63607 h 3.88477 l 4.68034,12.63607 h -3.27539 z m -4.28255,-2.34441 h 3.46159 l -1.72656,-5.02734 z" /><path
     inkscape:connector-curvature="0"
     id="path1025"
     style="font-size:17.33333397px"
     d="m 241.77574,220.63421 h 11.64583 v 2.46289 h -4.18945 v 10.17318 h -3.25847 V 223.0971 h -4.19791 z" /><path
     inkscape:connector-curvature="0"
     id="path1027"
     style="font-size:17.33333397px"
     d="m 255.09737,220.63421 h 8.79362 v 2.46289 h -5.53515 v 2.35287 h 5.20507 v 2.46289 h -5.20507 v 2.89453 h 5.72135 v 2.46289 h -8.97982 z" /><path
     inkscape:connector-curvature="0"
     id="path1029"
     style="font-size:17.33333397px"
     d="m 271.57587,226.23708 q 1.02409,0 1.46419,-0.38086 0.44857,-0.38086 0.44857,-1.25261 0,-0.86328 -0.44857,-1.23568 -0.4401,-0.37239 -1.46419,-0.37239 h -1.3711 v 3.24154 z m -1.3711,2.2513 v 4.7819 h -3.25846 v -12.63607 h 4.97656 q 2.49675,0 3.65625,0.83789 1.16797,0.83789 1.16797,2.64909 0,1.2526 -0.60937,2.05664 -0.60092,0.80404 -1.81967,1.1849 0.66862,0.15234 1.19336,0.69401 0.53321,0.5332 1.07487,1.625 l 1.76888,3.58854 h -3.47005 l -1.54036,-3.13998 q -0.4655,-0.94791 -0.94792,-1.29492 -0.47396,-0.347 -1.26953,-0.347 z" /><path
     inkscape:connector-curvature="0"
     id="path1031"
     style="font-size:17.33333397px"
     d="m 293.24256,226.82106 q 0,-0.6263 0.22006,-1.17643 0.22851,-0.55013 0.66015,-0.97331 0.44857,-0.43164 0.9987,-0.65169 0.55013,-0.22852 1.16797,-0.22852 0.61784,0 1.16797,0.22852 0.55859,0.22851 0.98177,0.65169 0.4401,0.4401 0.66016,0.99023 0.22851,0.54167 0.22851,1.15951 0,0.6263 -0.22851,1.1849 -0.22852,0.55013 -0.66016,0.98177 -0.43164,0.43164 -0.99024,0.66015 -0.55013,0.22852 -1.17643,0.22852 -0.61784,0 -1.16797,-0.22852 -0.55013,-0.22851 -0.98177,-0.66015 -0.42317,-0.43164 -0.65169,-0.98177 -0.22852,-0.5586 -0.22852,-1.1849 z" /></g>

<g
   id="text5046"
   style="font-style:normal;font-variant:normal;font-weight:bold;font-stretch:normal;font-size:17.33333397px;line-height:1.25;font-family:sans-serif;-inkscape-font-specification:'sans-serif Bold';letter-spacing:0px;word-spacing:0px;fill:#d2492a;fill-opacity:1;stroke:none"
   transform="rotate(29.735658)"
   aria-label="   MINERALS   •   GEOTECHNICAL ENG  •"><path
     inkscape:connector-curvature="0"
     id="path928"
     d="m 362.00353,-146.30842 h 4.14714 l 2.8776,6.76237 2.89453,-6.76237 h 4.13867 v 12.63607 h -3.08073 v -9.24219 l -2.91145,6.81316 h -2.06511 l -2.91146,-6.81316 v 9.24219 h -3.08919 z" /><path
     inkscape:connector-curvature="0"
     id="path930"
     d="m 379.26915,-146.30842 h 3.25847 v 12.63607 h -3.25847 z" /><path
     inkscape:connector-curvature="0"
     id="path932"
     d="m 385.7353,-146.30842 h 3.63933 l 4.5957,8.66667 v -8.66667 h 3.08919 v 12.63607 h -3.63932 l -4.5957,-8.66667 v 8.66667 h -3.0892 z" /><path
     inkscape:connector-curvature="0"
     id="path934"
     d="m 400.25874,-146.30842 h 8.79362 v 2.46289 h -5.53516 v 2.35287 h 5.20508 v 2.46289 h -5.20508 v 2.89453 h 5.72136 v 2.46289 h -8.97982 z" /><path
     inkscape:connector-curvature="0"
     id="path936"
     d="m 416.73726,-140.70555 q 1.02409,0 1.46419,-0.38086 0.44857,-0.38086 0.44857,-1.25261 0,-0.86328 -0.44857,-1.23567 -0.4401,-0.3724 -1.46419,-0.3724 h -1.37109 v 3.24154 z m -1.37109,2.2513 v 4.7819 h -3.25847 v -12.63607 h 4.97656 q 2.49675,0 3.65625,0.83789 1.16797,0.8379 1.16797,2.64909 0,1.25261 -0.60937,2.05664 -0.60091,0.80404 -1.81966,1.1849 0.66862,0.15234 1.19336,0.69401 0.5332,0.5332 1.07487,1.625 l 1.76888,3.58854 h -3.47006 l -1.54036,-3.13997 q -0.4655,-0.94792 -0.94792,-1.29492 -0.47396,-0.34701 -1.26953,-0.34701 z" /><path
     inkscape:connector-curvature="0"
     id="path938"
     d="m 433.11421,-135.97443 h -5.09505 l -0.80404,2.30208 h -3.27539 l 4.68034,-12.63607 h 3.88476 l 4.68034,12.63607 h -3.27539 z m -4.28255,-2.3444 h 3.46159 l -1.72657,-5.02735 z" /><path
     inkscape:connector-curvature="0"
     id="path940"
     d="m 438.85249,-146.30842 h 3.25846 v 10.17318 h 5.72136 v 2.46289 h -8.97982 z" /><path
     inkscape:connector-curvature="0"
     id="path942"
     d="m 458.68257,-145.91063 v 2.67448 q -1.04101,-0.4655 -2.03125,-0.70247 -0.99023,-0.23698 -1.87044,-0.23698 -1.16797,0 -1.72656,0.32161 -0.5586,0.32162 -0.5586,0.9987 0,0.50781 0.3724,0.79557 0.38086,0.2793 1.37109,0.48242 l 1.38802,0.2793 q 2.10743,0.42318 2.9961,1.28646 0.88867,0.86328 0.88867,2.45443 0,2.09049 -1.24414,3.11458 -1.23568,1.01562 -3.78321,1.01562 -1.20182,0 -2.4121,-0.22851 -1.21029,-0.22852 -2.42058,-0.67708 v -2.75066 q 1.21029,0.64323 2.33594,0.97331 1.13411,0.32162 2.18359,0.32162 1.06641,0 1.63347,-0.35547 0.56705,-0.35547 0.56705,-1.01563 0,-0.59245 -0.38932,-0.91406 -0.38086,-0.32161 -1.5319,-0.57552 l -1.26107,-0.2793 q -1.89583,-0.40625 -2.77604,-1.29492 -0.87174,-0.88867 -0.87174,-2.39518 0,-1.88737 1.21875,-2.903 1.21875,-1.01562 3.5039,-1.01562 1.04102,0 2.14128,0.16081 1.10026,0.15234 2.27669,0.46549 z" /><path
     inkscape:connector-curvature="0"
     id="path944"
     d="m 481.36486,-140.12157 q 0,-0.6263 0.22006,-1.17643 0.22851,-0.55013 0.66015,-0.97331 0.44857,-0.43164 0.9987,-0.65169 0.55013,-0.22852 1.16797,-0.22852 0.61784,0 1.16797,0.22852 0.55859,0.22852 0.98177,0.65169 0.4401,0.44011 0.66015,0.99024 0.22852,0.54166 0.22852,1.1595 0,0.62631 -0.22852,1.1849 -0.22851,0.55013 -0.66015,0.98177 -0.43164,0.43164 -0.99024,0.66016 -0.55013,0.22851 -1.17643,0.22851 -0.61784,0 -1.16797,-0.22851 -0.55013,-0.22852 -0.98177,-0.66016 -0.42318,-0.43164 -0.65169,-0.98177 -0.22852,-0.55859 -0.22852,-1.1849 z" /><path
     inkscape:connector-curvature="0"
     id="path946"
     d="m 520.96578,-134.6118 q -1.21876,0.59245 -2.5306,0.88867 -1.31185,0.29622 -2.70834,0.29622 -3.1569,0 -5.00195,-1.76041 -1.84505,-1.76888 -1.84505,-4.79037 0,-3.05534 1.8789,-4.80729 1.87891,-1.75195 5.14584,-1.75195 1.26106,0 2.41211,0.23698 1.1595,0.23698 2.18359,0.70247 v 2.61524 q -1.05794,-0.60092 -2.10742,-0.89714 -1.04102,-0.29622 -2.0905,-0.29622 -1.94661,0 -3.00455,1.09179 -1.04948,1.08334 -1.04948,3.10612 0,2.00586 1.01562,3.09766 1.01563,1.0918 2.88607,1.0918 0.50781,0 0.93945,-0.0592 0.44011,-0.0677 0.78711,-0.20312 v -2.45443 h -1.98893 v -2.18359 h 5.07813 z" /><path
     inkscape:connector-curvature="0"
     id="path948"
     d="m 523.82645,-146.30842 h 8.79362 v 2.46289 h -5.53515 v 2.35287 h 5.20507 v 2.46289 h -5.20507 v 2.89453 h 5.72135 v 2.46289 h -8.97982 z" /><path
     inkscape:connector-curvature="0"
     id="path950"
     d="m 541.44756,-144.1756 q -1.48959,0 -2.31055,1.10026 -0.82096,1.10026 -0.82096,3.09765 0,1.98894 0.82096,3.0892 0.82096,1.10026 2.31055,1.10026 1.49804,0 2.31901,-1.10026 0.82096,-1.10026 0.82096,-3.0892 0,-1.99739 -0.82096,-3.09765 -0.82097,-1.10026 -2.31901,-1.10026 z m 0,-2.36133 q 3.04687,0 4.77343,1.74349 1.72657,1.74349 1.72657,4.81575 0,3.06381 -1.72657,4.8073 -1.72656,1.74348 -4.77343,1.74348 -3.03842,0 -4.77344,-1.74348 -1.72656,-1.74349 -1.72656,-4.8073 0,-3.07226 1.72656,-4.81575 1.73502,-1.74349 4.77344,-1.74349 z" /><path
     inkscape:connector-curvature="0"
     id="path952"
     d="m 548.89547,-146.30842 h 11.64584 v 2.46289 h -4.18946 v 10.17318 h -3.25846 v -10.17318 h -4.19792 z" /><path
     inkscape:connector-curvature="0"
     id="path954"
     d="m 562.21708,-146.30842 h 8.79362 v 2.46289 h -5.53516 v 2.35287 h 5.20508 v 2.46289 h -5.20508 v 2.89453 h 5.72135 v 2.46289 h -8.97981 z" /><path
     inkscape:connector-curvature="0"
     id="path956"
     d="m 584.08688,-134.36636 q -0.89714,0.4655 -1.87044,0.70248 -0.97331,0.23697 -2.03125,0.23697 -3.15691,0 -5.00196,-1.76041 -1.84505,-1.76888 -1.84505,-4.79037 0,-3.02994 1.84505,-4.79036 1.84505,-1.76888 5.00196,-1.76888 1.05794,0 2.03125,0.23698 0.9733,0.23698 1.87044,0.70247 v 2.61524 q -0.9056,-0.61784 -1.78581,-0.9056 -0.88021,-0.28776 -1.85351,-0.28776 -1.74349,0 -2.74219,1.11718 -0.9987,1.11719 -0.9987,3.08073 0,1.95508 0.9987,3.07227 0.9987,1.11719 2.74219,1.11719 0.9733,0 1.85351,-0.28776 0.88021,-0.28776 1.78581,-0.9056 z" /><path
     inkscape:connector-curvature="0"
     id="path958"
     d="m 586.7952,-146.30842 h 3.25847 v 4.81576 h 4.80729 v -4.81576 h 3.25846 v 12.63607 h -3.25846 v -5.35742 h -4.80729 v 5.35742 h -3.25847 z" /><path
     inkscape:connector-curvature="0"
     id="path960"
     d="m 601.31865,-146.30842 h 3.63933 l 4.5957,8.66667 v -8.66667 h 3.08919 v 12.63607 h -3.63932 l -4.5957,-8.66667 v 8.66667 h -3.0892 z" /><path
     inkscape:connector-curvature="0"
     id="path962"
     d="m 615.84209,-146.30842 h 3.25847 v 12.63607 h -3.25847 z" /><path
     inkscape:connector-curvature="0"
     id="path964"
     d="m 632.32905,-134.36636 q -0.89713,0.4655 -1.87044,0.70248 -0.97331,0.23697 -2.03125,0.23697 -3.1569,0 -5.00196,-1.76041 -1.84505,-1.76888 -1.84505,-4.79037 0,-3.02994 1.84505,-4.79036 1.84506,-1.76888 5.00196,-1.76888 1.05794,0 2.03125,0.23698 0.97331,0.23698 1.87044,0.70247 v 2.61524 q -0.9056,-0.61784 -1.78581,-0.9056 -0.8802,-0.28776 -1.85351,-0.28776 -1.74349,0 -2.74219,1.11718 -0.9987,1.11719 -0.9987,3.08073 0,1.95508 0.9987,3.07227 0.9987,1.11719 2.74219,1.11719 0.97331,0 1.85351,-0.28776 0.88021,-0.28776 1.78581,-0.9056 z" /><path
     inkscape:connector-curvature="0"
     id="path966"
     d="m 642.70537,-135.97443 h -5.09505 l -0.80404,2.30208 h -3.27539 l 4.68034,-12.63607 h 3.88477 l 4.68034,12.63607 h -3.27539 z m -4.28255,-2.3444 h 3.46159 l -1.72656,-5.02735 z" /><path
     inkscape:connector-curvature="0"
     id="path968"
     d="m 648.44365,-146.30842 h 3.25847 v 10.17318 h 5.72135 v 2.46289 h -8.97982 z" /><path
     inkscape:connector-curvature="0"
     id="path970"
     d="m 665.50615,-146.30842 h 8.79362 v 2.46289 h -5.53515 v 2.35287 h 5.20508 v 2.46289 h -5.20508 v 2.89453 h 5.72135 v 2.46289 h -8.97982 z" /><path
     inkscape:connector-curvature="0"
     id="path972"
     d="m 677.35509,-146.30842 h 3.63933 l 4.5957,8.66667 v -8.66667 h 3.08919 v 12.63607 h -3.63932 l -4.5957,-8.66667 v 8.66667 h -3.0892 z" /><path
     inkscape:connector-curvature="0"
     id="path974"
     d="m 703.23663,-134.6118 q -1.21875,0.59245 -2.5306,0.88867 -1.31184,0.29622 -2.70833,0.29622 -3.1569,0 -5.00195,-1.76041 -1.84505,-1.76888 -1.84505,-4.79037 0,-3.05534 1.8789,-4.80729 1.87891,-1.75195 5.14584,-1.75195 1.26106,0 2.41211,0.23698 1.1595,0.23698 2.18359,0.70247 v 2.61524 q -1.05794,-0.60092 -2.10742,-0.89714 -1.04102,-0.29622 -2.0905,-0.29622 -1.94661,0 -3.00456,1.09179 -1.04947,1.08334 -1.04947,3.10612 0,2.00586 1.01562,3.09766 1.01563,1.0918 2.88607,1.0918 0.50781,0 0.93945,-0.0592 0.44011,-0.0677 0.78711,-0.20312 v -2.45443 h -1.98893 v -2.18359 h 5.07812 z" /><path
     inkscape:connector-curvature="0"
     id="path976"
     d="m 719.05497,-140.12157 q 0,-0.6263 0.22005,-1.17643 0.22852,-0.55013 0.66016,-0.97331 0.44857,-0.43164 0.9987,-0.65169 0.55013,-0.22852 1.16797,-0.22852 0.61784,0 1.16797,0.22852 0.55859,0.22852 0.98177,0.65169 0.4401,0.44011 0.66015,0.99024 0.22852,0.54166 0.22852,1.1595 0,0.62631 -0.22852,1.1849 -0.22851,0.55013 -0.66015,0.98177 -0.43164,0.43164 -0.99024,0.66016 -0.55013,0.22851 -1.17643,0.22851 -0.61784,0 -1.16797,-0.22851 -0.55013,-0.22852 -0.98177,-0.66016 -0.42318,-0.43164 -0.65169,-0.98177 -0.22852,-0.55859 -0.22852,-1.1849 z" /></g>

<path
   sodipodi:nodetypes="cssscc"
   inkscape:connector-curvature="0"
   id="path5062"
   d="m 129.5058,468.97662 c 0,0 105.94963,-324.6109 149.67489,-202.74333 43.72527,121.86758 52.13397,169.50671 90.81401,167.29095 38.68004,-2.21577 61.62397,-21.00909 87.4577,-10.97695 42.05363,16.33089 70.27522,47.38661 70.27522,47.38661 z"
   style="fill:#d2492a;fill-opacity:0.438889;stroke:#d2492a;stroke-width:6.35331;stroke-linecap:butt;stroke-linejoin:miter;stroke-miterlimit:4;stroke-dasharray:none;stroke-opacity:1" /><path
   inkscape:connector-curvature="0"
   id="path5064"
   d="m 607.71645,471.40467 c 0,0 -55.31636,-124.37736 -88.98719,-94.43466 -33.67084,29.94268 -52.91132,28.40718 -67.34168,10.74866 -14.43034,-17.65852 -44.49359,-109.02215 -75.75935,-89.8281 -31.26579,19.19404 -21.64556,67.56301 -43.29109,57.58211 -21.64553,-9.9809 -37.27843,-32.24598 -54.11383,-5.37434 -16.83543,26.87167 -12.0253,92.89916 -42.08853,104.41557 -30.06327,11.51643 -110.63275,16.123 -110.63275,16.123 z"
   style="fill:#92a2bd;fill-opacity:0.461111;stroke:#92a2bd;stroke-width:4.79303;stroke-linecap:butt;stroke-linejoin:miter;stroke-miterlimit:4;stroke-dasharray:none;stroke-opacity:1" /><path
   sodipodi:nodetypes="zzczczz"
   inkscape:connector-curvature="0"
   id="path5077"
   d="m 299.30482,211.1838 c 1.2357,-0.61786 -4.58204,-27.42508 16.55834,-66.23343 21.14042,-38.80837 51.15792,-52.393613 51.15792,-52.393613 0,0 26.78485,10.998073 49.92222,49.427933 23.13737,38.42986 19.02975,69.19911 19.02975,69.19911 0,0 -33.32666,18.97243 -70.18766,18.28833 -36.86101,-0.68409 -67.71627,-17.67048 -66.48057,-18.28833 z"
   style="fill:none;stroke:#92a2bd;stroke-width:20;stroke-linecap:butt;stroke-linejoin:miter;stroke-miterlimit:4;stroke-dasharray:none;stroke-opacity:1;paint-order:normal" /><g
   transform="matrix(1.4889824,0,0,1.4889824,-182.70403,-400.66662)"
   id="text833"
   style="font-style:normal;font-weight:normal;font-size:13.3333px;line-height:1.25;font-family:sans-serif;letter-spacing:0px;word-spacing:0px;fill:#000000;fill-opacity:1;stroke:none"
   aria-label="online.mines.edu/er"><path
     inkscape:connector-curvature="0"
     id="path831"
     style="font-size:24px;fill:#ffffff"
     d="m 258.25243,724.14838 q -1.73438,0 -2.74219,1.35937 -1.00781,1.34766 -1.00781,3.70313 0,2.35547 0.99609,3.71484 1.00781,1.34766 2.75391,1.34766 1.72265,0 2.73046,-1.35938 1.00782,-1.35937 1.00782,-3.70312 0,-2.33203 -1.00782,-3.69141 -1.00781,-1.37109 -2.73046,-1.37109 z m 0,-1.82813 q 2.8125,0 4.41796,1.82813 1.60547,1.82812 1.60547,5.0625 0,3.22265 -1.60547,5.0625 -1.60546,1.82812 -4.41796,1.82812 -2.82422,0 -4.42969,-1.82812 -1.59375,-1.83985 -1.59375,-5.0625 0,-3.23438 1.59375,-5.0625 1.60547,-1.82813 4.42969,-1.82813 z" /><path
     inkscape:connector-curvature="0"
     id="path833"
     style="font-size:24px;fill:#ffffff"
     d="m 278.74852,727.83978 v 7.92188 h -2.15625 v -7.85156 q 0,-1.86329 -0.72656,-2.78907 -0.72657,-0.92578 -2.17969,-0.92578 -1.74609,0 -2.75391,1.11328 -1.00781,1.11328 -1.00781,3.03516 v 7.41797 h -2.16797 v -13.125 h 2.16797 v 2.03906 q 0.77344,-1.18359 1.81641,-1.76953 1.05468,-0.58594 2.42578,-0.58594 2.26172,0 3.42187,1.40625 1.16016,1.39453 1.16016,4.11328 z" /><path
     inkscape:connector-curvature="0"
     id="path835"
     style="font-size:24px;fill:#ffffff"
     d="m 283.07274,717.52728 h 2.15625 v 18.23438 h -2.15625 z" /><path
     inkscape:connector-curvature="0"
     id="path837"
     style="font-size:24px;fill:#ffffff"
     d="m 289.72899,722.63666 h 2.15625 v 13.125 h -2.15625 z m 0,-5.10938 h 2.15625 v 2.73047 h -2.15625 z" /><path
     inkscape:connector-curvature="0"
     id="path839"
     style="font-size:24px;fill:#ffffff"
     d="m 307.29539,727.83978 v 7.92188 h -2.15625 v -7.85156 q 0,-1.86329 -0.72656,-2.78907 -0.72656,-0.92578 -2.17969,-0.92578 -1.74609,0 -2.7539,1.11328 -1.00781,1.11328 -1.00781,3.03516 v 7.41797 h -2.16797 v -13.125 h 2.16797 v 2.03906 q 0.77343,-1.18359 1.8164,-1.76953 1.05469,-0.58594 2.42578,-0.58594 2.26172,0 3.42188,1.40625 1.16015,1.39453 1.16015,4.11328 z" /><path
     inkscape:connector-curvature="0"
     id="path841"
     style="font-size:24px;fill:#ffffff"
     d="m 322.84618,728.6601 v 1.05468 h -9.91407 q 0.14063,2.22657 1.33594,3.39844 1.20703,1.16016 3.35156,1.16016 1.24219,0 2.40235,-0.30469 1.17187,-0.30469 2.32031,-0.91406 v 2.03906 q -1.16016,0.49219 -2.37891,0.75 -1.21875,0.25781 -2.47265,0.25781 -3.14063,0 -4.98047,-1.82812 -1.82813,-1.82813 -1.82813,-4.94532 0,-3.22265 1.73438,-5.10937 1.74609,-1.89844 4.69922,-1.89844 2.64843,0 4.18359,1.71094 1.54688,1.69922 1.54688,4.62891 z m -2.15625,-0.63282 q -0.0234,-1.76953 -0.9961,-2.82422 -0.96094,-1.05468 -2.55469,-1.05468 -1.80468,0 -2.89453,1.01953 -1.07812,1.01953 -1.24218,2.87109 z" /><path
     inkscape:connector-curvature="0"
     id="path843"
     style="font-size:24px;fill:#ffffff"
     d="m 326.68993,732.7851 h 2.47265 v 2.97656 h -2.47265 z" /><path
     inkscape:connector-curvature="0"
     id="path845"
     style="font-size:24px;fill:#ffffff"
     d="m 344.24461,725.15619 q 0.8086,-1.45313 1.9336,-2.14453 1.125,-0.69141 2.64843,-0.69141 2.05079,0 3.16407,1.44141 1.11328,1.42969 1.11328,4.07812 v 7.92188 h -2.16797 v -7.85156 q 0,-1.88672 -0.66797,-2.80079 -0.66797,-0.91406 -2.03906,-0.91406 -1.67578,0 -2.64844,1.11328 -0.97266,1.11328 -0.97266,3.03516 v 7.41797 h -2.16796 v -7.85156 q 0,-1.89844 -0.66797,-2.80079 -0.66797,-0.91406 -2.0625,-0.91406 -1.65235,0 -2.625,1.125 -0.97266,1.11328 -0.97266,3.02344 v 7.41797 h -2.16797 v -13.125 h 2.16797 v 2.03906 q 0.73828,-1.20703 1.76953,-1.78125 1.03125,-0.57422 2.44922,-0.57422 1.42969,0 2.42578,0.72656 1.00781,0.72657 1.48828,2.10938 z" /><path
     inkscape:connector-curvature="0"
     id="path847"
     style="font-size:24px;fill:#ffffff"
     d="m 357.41649,722.63666 h 2.15625 v 13.125 h -2.15625 z m 0,-5.10938 h 2.15625 v 2.73047 h -2.15625 z" /><path
     inkscape:connector-curvature="0"
     id="path849"
     style="font-size:24px;fill:#ffffff"
     d="m 374.98289,727.83978 v 7.92188 h -2.15625 v -7.85156 q 0,-1.86329 -0.72656,-2.78907 -0.72656,-0.92578 -2.17969,-0.92578 -1.74609,0 -2.7539,1.11328 -1.00781,1.11328 -1.00781,3.03516 v 7.41797 h -2.16797 v -13.125 h 2.16797 v 2.03906 q 0.77343,-1.18359 1.8164,-1.76953 1.05469,-0.58594 2.42578,-0.58594 2.26172,0 3.42188,1.40625 1.16015,1.39453 1.16015,4.11328 z" /><path
     inkscape:connector-curvature="0"
     id="path851"
     style="font-size:24px;fill:#ffffff"
     d="m 390.53368,728.6601 v 1.05468 h -9.91407 q 0.14063,2.22657 1.33594,3.39844 1.20703,1.16016 3.35156,1.16016 1.24219,0 2.40235,-0.30469 1.17187,-0.30469 2.32031,-0.91406 v 2.03906 q -1.16016,0.49219 -2.37891,0.75 -1.21875,0.25781 -2.47265,0.25781 -3.14063,0 -4.98047,-1.82812 -1.82813,-1.82813 -1.82813,-4.94532 0,-3.22265 1.73438,-5.10937 1.74609,-1.89844 4.69922,-1.89844 2.64843,0 4.18359,1.71094 1.54688,1.69922 1.54688,4.62891 z m -2.15625,-0.63282 q -0.0234,-1.76953 -0.9961,-2.82422 -0.96094,-1.05468 -2.55469,-1.05468 -1.80468,0 -2.89453,1.01953 -1.07812,1.01953 -1.24218,2.87109 z" /><path
     inkscape:connector-curvature="0"
     id="path853"
     style="font-size:24px;fill:#ffffff"
     d="m 402.43993,723.02338 v 2.03906 q -0.91407,-0.46875 -1.89844,-0.70313 -0.98438,-0.23437 -2.03906,-0.23437 -1.60547,0 -2.41407,0.49219 -0.79687,0.49218 -0.79687,1.47656 0,0.75 0.57422,1.18359 0.57422,0.42188 2.30859,0.8086 l 0.73828,0.16406 q 2.29688,0.49219 3.25781,1.39453 0.97266,0.89063 0.97266,2.49609 0,1.82813 -1.45312,2.89454 -1.44141,1.0664 -3.97266,1.0664 -1.05469,0 -2.20313,-0.21094 -1.13671,-0.19921 -2.40234,-0.60937 v -2.22656 q 1.19531,0.62109 2.35547,0.9375 1.16016,0.30468 2.29687,0.30468 1.52344,0 2.34375,-0.51562 0.82032,-0.52734 0.82032,-1.47656 0,-0.87891 -0.59766,-1.34766 -0.58594,-0.46875 -2.58984,-0.90234 l -0.75,-0.17578 q -2.00391,-0.42188 -2.89453,-1.28907 -0.89063,-0.8789 -0.89063,-2.40234 0,-1.85156 1.3125,-2.85938 1.3125,-1.00781 3.72656,-1.00781 1.19532,0 2.25,0.17578 1.05469,0.17578 1.94532,0.52735 z" /><path
     inkscape:connector-curvature="0"
     id="path855"
     style="font-size:24px;fill:#ffffff"
     d="m 406.89305,732.7851 h 2.47266 v 2.97656 h -2.47266 z" /><path
     inkscape:connector-curvature="0"
     id="path857"
     style="font-size:24px;fill:#ffffff"
     d="m 425.45555,728.6601 v 1.05468 h -9.91406 q 0.14062,2.22657 1.33594,3.39844 1.20703,1.16016 3.35156,1.16016 1.24219,0 2.40234,-0.30469 1.17188,-0.30469 2.32031,-0.91406 v 2.03906 q -1.16015,0.49219 -2.3789,0.75 -1.21875,0.25781 -2.47266,0.25781 -3.14062,0 -4.98047,-1.82812 -1.82812,-1.82813 -1.82812,-4.94532 0,-3.22265 1.73437,-5.10937 1.7461,-1.89844 4.69922,-1.89844 2.64844,0 4.1836,1.71094 1.54687,1.69922 1.54687,4.62891 z m -2.15625,-0.63282 q -0.0234,-1.76953 -0.99609,-2.82422 -0.96094,-1.05468 -2.55469,-1.05468 -1.80469,0 -2.89453,1.01953 -1.07813,1.01953 -1.24219,2.87109 z" /><path
     inkscape:connector-curvature="0"
     id="path859"
     style="font-size:24px;fill:#ffffff"
     d="m 437.63133,724.62885 v -7.10157 h 2.15625 v 18.23438 h -2.15625 v -1.96875 q -0.67969,1.17187 -1.72265,1.74609 -1.03125,0.5625 -2.48438,0.5625 -2.37891,0 -3.87891,-1.89844 -1.48828,-1.89843 -1.48828,-4.99218 0,-3.09375 1.48828,-4.99219 1.5,-1.89844 3.87891,-1.89844 1.45313,0 2.48438,0.57422 1.04296,0.5625 1.72265,1.73438 z m -7.34765,4.58203 q 0,2.3789 0.97265,3.73828 0.98438,1.34765 2.69531,1.34765 1.71094,0 2.69532,-1.34765 0.98437,-1.35938 0.98437,-3.73828 0,-2.37891 -0.98437,-3.72657 -0.98438,-1.35937 -2.69532,-1.35937 -1.71093,0 -2.69531,1.35937 -0.97265,1.34766 -0.97265,3.72657 z" /><path
     inkscape:connector-curvature="0"
     id="path861"
     style="font-size:24px;fill:#ffffff"
     d="m 444.00633,730.58197 v -7.94531 h 2.15625 v 7.86328 q 0,1.86328 0.72656,2.80078 0.72657,0.92578 2.17969,0.92578 1.7461,0 2.75391,-1.11328 1.01953,-1.11328 1.01953,-3.03516 v -7.4414 h 2.15625 v 13.125 h -2.15625 v -2.01563 q -0.78516,1.19532 -1.82813,1.78125 -1.03125,0.57422 -2.40234,0.57422 -2.26172,0 -3.43359,-1.40625 -1.17188,-1.40625 -1.17188,-4.11328 z m 5.42578,-8.26172 z" /><path
     inkscape:connector-curvature="0"
     id="path863"
     style="font-size:24px;fill:#ffffff"
     d="m 463.29539,718.26556 h 1.99219 l -6.09375,19.72266 h -1.99219 z" /><path
     inkscape:connector-curvature="0"
     id="path865"
     style="font-size:24px;fill:#ffffff"
     d="m 478.7993,728.6601 v 1.05468 h -9.91406 q 0.14062,2.22657 1.33594,3.39844 1.20703,1.16016 3.35156,1.16016 1.24219,0 2.40234,-0.30469 1.17188,-0.30469 2.32031,-0.91406 v 2.03906 q -1.16015,0.49219 -2.3789,0.75 -1.21875,0.25781 -2.47266,0.25781 -3.14062,0 -4.98047,-1.82812 -1.82812,-1.82813 -1.82812,-4.94532 0,-3.22265 1.73437,-5.10937 1.7461,-1.89844 4.69922,-1.89844 2.64844,0 4.1836,1.71094 1.54687,1.69922 1.54687,4.62891 z m -2.15625,-0.63282 q -0.0234,-1.76953 -0.99609,-2.82422 -0.96094,-1.05468 -2.55469,-1.05468 -1.80469,0 -2.89453,1.01953 -1.07813,1.01953 -1.24219,2.87109 z" /><path
     inkscape:connector-curvature="0"
     id="path867"
     style="font-size:24px;fill:#ffffff"
     d="m 489.94383,724.65228 q -0.36328,-0.21093 -0.79687,-0.30468 -0.42188,-0.10547 -0.9375,-0.10547 -1.82813,0 -2.8125,1.19531 -0.97266,1.18359 -0.97266,3.41016 v 6.91406 h -2.16797 v -13.125 h 2.16797 v 2.03906 q 0.67969,-1.19531 1.76953,-1.76953 1.08985,-0.58594 2.64844,-0.58594 0.22266,0 0.49219,0.0352 0.26953,0.0234 0.59765,0.082 z" /></g>
</svg>
